<?xml version="1.0" standalone="no"?>
<!DOCTYPE svg PUBLIC "-//W3C//DTD SVG 20010904//EN"
 "http://www.w3.org/TR/2001/REC-SVG-20010904/DTD/svg10.dtd">
<svg version="1.0" xmlns="http://www.w3.org/2000/svg"
 width="500.000000pt" height="500.000000pt" viewBox="0 0 500.000000 500.000000"
 preserveAspectRatio="xMidYMid meet">
<metadata>
Created by potrace 1.11, written by Peter Selinger 2001-2013
</metadata>
<g transform="translate(0.000000,500.000000) scale(0.100000,-0.100000)"
fill="#000000" stroke="none">
<path d="M2310 3895 c-87 -14 -219 -49 -270 -72 -228 -102 -339 -179 -515
-357 -66 -67 -130 -134 -143 -149 -83 -102 -190 -254 -327 -467 -87 -135 -164
-253 -172 -262 -13 -15 -20 -11 -72 41 -32 32 -78 72 -102 88 -76 53 -170 69
-177 31 -2 -12 11 -20 52 -32 61 -18 140 -83 202 -167 l36 -49 -36 -48 c-43
-60 -122 -134 -164 -156 -18 -9 -32 -14 -32 -12 0 3 -14 0 -31 -6 -48 -16 -35
-43 21 -42 64 0 126 35 216 120 l77 74 73 -113 c173 -269 280 -431 289 -441 6
-6 21 -27 35 -46 103 -150 315 -372 450 -472 190 -139 407 -231 605 -255 75
-9 287 -9 340 0 270 47 452 129 660 296 218 175 365 360 710 891 48 74 89 137
91 139 2 2 36 -29 76 -68 84 -83 176 -134 229 -129 52 5 51 34 -2 48 -59 16
-107 49 -168 116 -88 96 -88 97 -56 145 53 76 147 154 209 173 42 14 56 22 54
35 -3 12 -15 16 -54 15 -64 -2 -131 -43 -222 -134 -34 -35 -64 -61 -66 -59 -2
2 -72 110 -157 239 -235 362 -333 492 -495 655 -77 78 -198 181 -259 220 -138
89 -326 171 -439 191 -17 3 -51 10 -76 16 -64 15 -301 17 -390 3z m280 -166
c79 -3 243 -38 325 -69 90 -34 295 -148 325 -180 3 -3 28 -23 55 -45 69 -55
239 -225 313 -312 34 -40 119 -150 189 -245 70 -95 162 -219 204 -275 l77
-102 -179 -241 c-233 -316 -310 -411 -438 -540 -128 -129 -189 -180 -303 -254
-161 -104 -290 -153 -503 -191 -50 -9 -266 -6 -325 4 -203 35 -363 102 -543
228 -104 72 -339 306 -446 443 -46 58 -88 112 -94 120 -7 8 -81 108 -166 222
l-153 208 169 227 c285 386 383 502 564 665 173 155 381 266 588 313 60 14
257 35 271 29 3 -1 35 -4 70 -5z"/>
<path d="M2428 3435 c-2 -1 -28 -5 -58 -8 -83 -9 -206 -44 -288 -82 -326 -151
-497 -454 -486 -864 3 -135 7 -169 34 -274 86 -332 363 -571 732 -630 296 -47
604 49 821 256 l57 55 0 227 c0 186 3 233 16 260 17 36 53 56 107 59 44 3 55
11 53 38 l-1 23 -245 3 -246 2 1 -32 c1 -29 3 -32 40 -35 60 -4 92 -21 109
-56 12 -25 15 -76 15 -259 l0 -228 -42 -29 c-87 -59 -237 -118 -372 -146 -355
-74 -679 97 -803 424 -69 180 -84 451 -37 656 77 331 307 508 660 508 74 0
100 -3 178 -18 88 -17 218 -81 284 -138 43 -38 109 -136 118 -176 7 -32 19
-37 80 -37 l40 1 -2 75 c0 41 -2 105 -2 141 -1 64 -2 66 -39 90 -130 86 -327
161 -482 185 -44 6 -237 14 -242 9z"/>
<path d="M525 2650 c-6 -9 -9 -145 -6 -257 1 -50 26 -71 56 -49 16 12 18 30
18 153 0 77 -3 145 -7 151 -9 15 -53 16 -61 2z"/>
<path d="M4414 2648 c-9 -15 -9 -282 0 -297 9 -15 53 -14 62 1 9 15 9 282 -1
297 -8 15 -52 14 -61 -1z"/>
<path d="M392 2578 c-7 -7 -12 -40 -12 -80 0 -56 3 -69 19 -78 25 -13 27 -13
43 4 19 18 16 145 -3 157 -19 12 -33 11 -47 -3z"/>
<path d="M668 2571 c-16 -23 -15 -126 2 -146 16 -19 34 -19 50 0 16 19 14 133
-2 152 -15 18 -35 16 -50 -6z"/>
<path d="M4286 2577 c-23 -17 -25 -132 -3 -155 18 -18 57 -7 58 16 4 70 0 124
-11 137 -15 18 -21 19 -44 2z"/>
<path d="M4554 2568 c-26 -82 1 -177 43 -152 14 9 19 26 21 78 2 41 -2 73 -9
82 -17 21 -47 17 -55 -8z"/>
</g>
</svg>
